<svg data-v-423bf9ae="" xmlns="http://www.w3.org/2000/svg" viewBox="0 0 666 90" class="iconLeft"><!----><!----><!----><g data-v-423bf9ae="" id="7d2a7055-6412-44b3-a9ed-7e2e331f692d" fill="white" transform="matrix(4.622496310940746,0,0,4.622496310940746,105.66868413012605,0.023112146887001472)"><path d="M7.13 13.15L3.57 9.54L6.72 6.53L4.87 6.53L2.29 9.04L2.29 3.24L0.88 3.24L0.88 13.15L2.29 13.15L2.29 10.06L5.25 13.15ZM11.36 6.36C10.43 6.36 9.73 6.75 9.32 7.32L9.14 6.53L7.90 6.53L7.90 13.15L9.32 13.15L9.32 9.11C9.44 7.95 10.22 7.57 10.97 7.57C11.99 7.57 12.43 8.30 12.43 9.38L12.43 13.15L13.84 13.15L13.84 9.06C13.84 7 12.51 6.36 11.36 6.36ZM18.71 13.34C20.80 13.34 22.25 11.81 22.25 9.84C22.25 7.89 20.80 6.36 18.71 6.36C16.60 6.36 15.15 7.89 15.15 9.84C15.15 11.81 16.60 13.34 18.71 13.34ZM18.71 12.13C17.49 12.13 16.63 11.14 16.63 9.84C16.63 8.56 17.49 7.57 18.71 7.57C19.92 7.57 20.78 8.56 20.78 9.84C20.78 11.14 19.92 12.13 18.71 12.13ZM31.72 6.53L30.11 11.33L28.64 6.53L27.46 6.53L25.99 11.33L24.37 6.53L22.87 6.53L25.38 13.15L26.56 13.15L28.06 8.17L29.55 13.15L30.73 13.15L33.24 6.53ZM34.27 13.15L35.69 13.15L35.69 3.24L34.27 3.24ZM43.79 9.70C43.79 7.73 42.47 6.36 40.54 6.36C38.56 6.36 37.13 7.89 37.13 9.84C37.13 11.80 38.54 13.31 40.72 13.31C41.85 13.31 42.82 12.92 43.41 12.25L42.44 11.46C42.01 11.94 41.45 12.19 40.70 12.19C39.46 12.19 38.72 11.33 38.62 10.15L43.79 10.15ZM40.54 7.50C41.58 7.50 42.25 8.12 42.39 9.17L38.67 9.17C38.88 8.17 39.56 7.50 40.54 7.50ZM50.12 3.24L50.12 7.32C49.61 6.72 48.88 6.36 47.94 6.36C46.21 6.36 44.84 7.69 44.84 9.84C44.84 12.00 46.21 13.31 47.94 13.31C48.93 13.31 49.70 12.91 50.21 12.25L50.39 13.15L51.54 13.15L51.54 3.24ZM48.27 12.12C47.08 12.12 46.29 11.14 46.29 9.84C46.29 8.55 47.08 7.55 48.27 7.55C49.51 7.55 50.31 8.55 50.31 9.84C50.31 11.14 49.51 12.12 48.27 12.12ZM58.51 6.53L58.32 7.47C57.81 6.80 57.04 6.36 56.01 6.36C54.29 6.36 52.92 7.67 52.92 9.81C52.92 11.96 54.29 13.27 56.01 13.27C56.98 13.27 57.74 12.89 58.25 12.26L58.25 12.43C58.25 14.13 57.74 15.02 56.34 15.02C55.97 15.02 55.58 14.95 55.23 14.79L54.91 15.98C55.34 16.13 55.88 16.22 56.41 16.22C58.57 16.22 59.66 14.95 59.66 12.54L59.66 6.53ZM56.35 12.07C55.15 12.07 54.37 11.11 54.37 9.81C54.37 8.53 55.15 7.54 56.35 7.54C57.59 7.54 58.39 8.53 58.39 9.81C58.39 11.11 57.59 12.07 56.35 12.07ZM67.71 9.70C67.71 7.73 66.38 6.36 64.46 6.36C62.48 6.36 61.05 7.89 61.05 9.84C61.05 11.80 62.46 13.31 64.63 13.31C65.77 13.31 66.73 12.92 67.33 12.25L66.35 11.46C65.93 11.94 65.36 12.19 64.62 12.19C63.38 12.19 62.64 11.33 62.53 10.15L67.71 10.15ZM64.46 7.50C65.49 7.50 66.16 8.12 66.31 9.17L62.59 9.17C62.80 8.17 63.48 7.50 64.46 7.50ZM75.94 13.34C76.85 13.34 77.60 13.07 78.21 12.60L77.39 11.58C77.03 11.93 76.52 12.13 75.96 12.13C74.67 12.13 73.89 11.14 73.89 9.84C73.89 8.55 74.67 7.57 75.96 7.57C76.52 7.57 77.03 7.77 77.39 8.12L78.21 7.10C77.60 6.64 76.85 6.36 75.94 6.36C73.88 6.36 72.45 7.89 72.45 9.84C72.45 11.81 73.88 13.34 75.94 13.34ZM82.51 13.34C84.60 13.34 86.06 11.81 86.06 9.84C86.06 7.89 84.60 6.36 82.51 6.36C80.40 6.36 78.95 7.89 78.95 9.84C78.95 11.81 80.40 13.34 82.51 13.34ZM82.51 12.13C81.29 12.13 80.43 11.14 80.43 9.84C80.43 8.56 81.29 7.57 82.51 7.57C83.72 7.57 84.58 8.56 84.58 9.84C84.58 11.14 83.72 12.13 82.51 12.13ZM87.50 13.15L88.91 13.15L88.91 3.24L87.50 3.24ZM90.78 13.15L92.20 13.15L92.20 3.24L90.78 3.24ZM94.85 5.26C95.36 5.26 95.77 4.86 95.77 4.36C95.77 3.86 95.36 3.46 94.85 3.46C94.35 3.46 93.95 3.86 93.95 4.36C93.95 4.86 94.35 5.26 94.85 5.26ZM94.18 13.15L95.56 13.15L95.56 6.53L94.18 6.53ZM96.85 12.22C97.33 12.88 98.34 13.34 99.57 13.34C101.21 13.34 102.21 12.54 102.21 11.35C102.21 9.00 98.71 9.79 98.71 8.36C98.71 7.86 99.09 7.53 99.87 7.51C100.35 7.50 100.90 7.73 101.30 8.11L102.07 7.22C101.63 6.75 100.79 6.36 99.81 6.36C98.23 6.36 97.27 7.19 97.27 8.41C97.27 10.82 100.71 10.09 100.71 11.38C100.71 11.87 100.30 12.21 99.49 12.21C98.83 12.21 98.23 11.97 97.75 11.35ZM104.40 5.26C104.91 5.26 105.32 4.86 105.32 4.36C105.32 3.86 104.91 3.46 104.40 3.46C103.91 3.46 103.50 3.86 103.50 4.36C103.50 4.86 103.91 5.26 104.40 5.26ZM103.73 13.15L105.12 13.15L105.12 6.53L103.73 6.53ZM110.24 13.34C112.32 13.34 113.78 11.81 113.78 9.84C113.78 7.89 112.32 6.36 110.24 6.36C108.12 6.36 106.68 7.89 106.68 9.84C106.68 11.81 108.12 13.34 110.24 13.34ZM110.24 12.13C109.01 12.13 108.15 11.14 108.15 9.84C108.15 8.56 109.01 7.57 110.24 7.57C111.45 7.57 112.31 8.56 112.31 9.84C112.31 11.14 111.45 12.13 110.24 12.13ZM118.62 6.36C117.69 6.36 116.99 6.75 116.58 7.32L116.40 6.53L115.16 6.53L115.16 13.15L116.58 13.15L116.58 9.11C116.70 7.95 117.48 7.57 118.23 7.57C119.25 7.57 119.69 8.30 119.69 9.38L119.69 13.15L121.10 13.15L121.10 9.06C121.10 7 119.77 6.36 118.62 6.36Z"></path></g><!----><g data-v-423bf9ae="" id="6aeea3b8-f50f-4e52-a906-8abb426040ee" transform="matrix(1.8695101420284945,0,0,1.8695101420284945,0.13175659131613315,1.1225611552042807)" stroke="none" fill="white"><path d="M34 38.3c.1-.3.1-.6-.1-.9-.2-.3-.5-.4-.8-.4H5.5c-3 0-5.5 2.5-5.5 5.5S2.5 48 5.5 48h27.6c.6 0 1-.4 1-1 0-.2 0-.3-.1-.5-.9-2.7-.9-5.6 0-8.2zM5.5 46C3.6 46 2 44.4 2 42.5c0-2 1.6-3.5 3.5-3.5h26.3c-.2.8-.3 1.7-.4 2.5H5.7c-.6 0-1 .4-1 1s.4 1 1 1h25.7c.1.8.2 1.7.4 2.5H5.5zM.1 33.5v.1c-.1.4-.1.7.1.9.2.3.5.5.8.5h27.6c3 0 5.5-2.5 5.5-5.5S31.6 24 28.6 24H1c-.3 0-.6.2-.8.4-.2.3-.2.6-.1.9.9 2.6.9 5.5 0 8.2zm28.5-7.6c1.9 0 3.5 1.6 3.5 3.5s-1.6 3.5-3.5 3.5H2.3c.2-.8.3-1.7.4-2.5h25.7c.6 0 1-.4 1-1s-.4-1-1-1H2.7c-.1-.8-.2-1.7-.4-2.5h26.3zM42.5 14.9c-3 0-5.5 2.5-5.5 5.5V47c0 .3.2.6.4.8.2.1.4.2.6.2.1 0 .2 0 .3-.1 2.7-.9 5.6-.9 8.3 0h.1c.3.1.6 0 .9-.1.3-.2.4-.5.4-.8V20.4c0-3-2.5-5.5-5.5-5.5zM46 45.7c-.8-.2-1.7-.3-2.5-.4V20.6c0-.6-.4-1-1-1s-1 .4-1 1v24.7c-.8.1-1.7.2-2.5.4V20.4c0-1.9 1.6-3.5 3.5-3.5s3.5 1.6 3.5 3.5v25.3zM25.2 7.2c-.9-1.3-2.3-2.2-3.9-2.5-1.2-.2-2.4-.1-3.5.4-.1.1-.2.1-.3.1 0-.9.5-2.3 2.6-3.4.5-.3.7-.9.4-1.4-.3-.5-.9-.7-1.4-.4-1.5.8-2.4 1.8-2.9 2.8-.7-.2-1.5-.4-2.2-.4-2.8 0-5.4 1.6-6.6 4.2-.3.5-.2 1 .1 1.3-.6 1.1-.8 2.5-.5 3.8.5 2.6 4 10.5 7.8 9.9.2 0 .5-.1.7-.3.6-.3 1.4-.3 2.1 0 .2.1.5.2.7.2h.5c3.6 0 6.9-7.4 7.4-9.9.2-1.5-.1-3.1-1-4.4zM13.9 4.5c.4 0 .8 0 1.2.1C13.7 6.2 12 7 9.8 6.5c.9-1.2 2.4-2 4.1-2zm10.3 6.8c-.5 2.7-3.6 8.3-5.4 8.3h-.1s-.1 0-.2-.1c-.6-.3-1.3-.5-1.9-.5-.7 0-1.3.2-1.9.5-.1 0-.2.1-.2.1h-.1c-1.8 0-4.9-5.5-5.4-8.3-.2-.9 0-1.9.5-2.7 2 .3 3.8 0 5.3-1 0 0 .3-.2.5-.3 1.1.3 2.3.2 3.4-.3.7-.3 1.5-.4 2.3-.3 1.1.2 2 .8 2.6 1.6.5.9.8 2 .6 3z"></path></g><!----></svg>