<svg data-v-fde0c5aa="" xmlns="http://www.w3.org/2000/svg" viewBox="0 0 300 300" class="icon"><!----><defs data-v-fde0c5aa=""><linearGradient data-v-fde0c5aa="" gradientTransform="rotate(25)" id="4fc53540-55ba-4f66-97b5-0b50c150ac8f" x1="0%" y1="0%" x2="100%" y2="0%"><stop data-v-fde0c5aa="" offset="0%" stop-color="#21690F" stop-opacity="1"></stop><stop data-v-fde0c5aa="" offset="100%" stop-color="#88C848" stop-opacity="1"></stop></linearGradient></defs><rect data-v-fde0c5aa="" fill="url(#4fc53540-55ba-4f66-97b5-0b50c150ac8f)" x="0" y="0" width="300px" height="300px" class="logo-background-square"></rect><!----><defs data-v-fde0c5aa=""><!----></defs><g data-v-fde0c5aa="" id="f6255e00-b59a-485c-ae95-cf3cce700208" fill="#ffffff" stroke="none" transform="matrix(4.569913680514097,0,0,4.569913680514097,40.322071667661675,40.644148783084965)"><path d="M34 38.3c.1-.3.1-.6-.1-.9-.2-.3-.5-.4-.8-.4H5.5c-3 0-5.5 2.5-5.5 5.5S2.5 48 5.5 48h27.6c.6 0 1-.4 1-1 0-.2 0-.3-.1-.5-.9-2.7-.9-5.6 0-8.2zM5.5 46C3.6 46 2 44.4 2 42.5c0-2 1.6-3.5 3.5-3.5h26.3c-.2.8-.3 1.7-.4 2.5H5.7c-.6 0-1 .4-1 1s.4 1 1 1h25.7c.1.8.2 1.7.4 2.5H5.5zM.1 33.5v.1c-.1.4-.1.7.1.9.2.3.5.5.8.5h27.6c3 0 5.5-2.5 5.5-5.5S31.6 24 28.6 24H1c-.3 0-.6.2-.8.4-.2.3-.2.6-.1.9.9 2.6.9 5.5 0 8.2zm28.5-7.6c1.9 0 3.5 1.6 3.5 3.5s-1.6 3.5-3.5 3.5H2.3c.2-.8.3-1.7.4-2.5h25.7c.6 0 1-.4 1-1s-.4-1-1-1H2.7c-.1-.8-.2-1.7-.4-2.5h26.3zM42.5 14.9c-3 0-5.5 2.5-5.5 5.5V47c0 .3.2.6.4.8.2.1.4.2.6.2.1 0 .2 0 .3-.1 2.7-.9 5.6-.9 8.3 0h.1c.3.1.6 0 .9-.1.3-.2.4-.5.4-.8V20.4c0-3-2.5-5.5-5.5-5.5zM46 45.7c-.8-.2-1.7-.3-2.5-.4V20.6c0-.6-.4-1-1-1s-1 .4-1 1v24.7c-.8.1-1.7.2-2.5.4V20.4c0-1.9 1.6-3.5 3.5-3.5s3.5 1.6 3.5 3.5v25.3zM25.2 7.2c-.9-1.3-2.3-2.2-3.9-2.5-1.2-.2-2.4-.1-3.5.4-.1.1-.2.1-.3.1 0-.9.5-2.3 2.6-3.4.5-.3.7-.9.4-1.4-.3-.5-.9-.7-1.4-.4-1.5.8-2.4 1.8-2.9 2.8-.7-.2-1.5-.4-2.2-.4-2.8 0-5.4 1.6-6.6 4.2-.3.5-.2 1 .1 1.3-.6 1.1-.8 2.5-.5 3.8.5 2.6 4 10.5 7.8 9.9.2 0 .5-.1.7-.3.6-.3 1.4-.3 2.1 0 .2.1.5.2.7.2h.5c3.6 0 6.9-7.4 7.4-9.9.2-1.5-.1-3.1-1-4.4zM13.9 4.5c.4 0 .8 0 1.2.1C13.7 6.2 12 7 9.8 6.5c.9-1.2 2.4-2 4.1-2zm10.3 6.8c-.5 2.7-3.6 8.3-5.4 8.3h-.1s-.1 0-.2-.1c-.6-.3-1.3-.5-1.9-.5-.7 0-1.3.2-1.9.5-.1 0-.2.1-.2.1h-.1c-1.8 0-4.9-5.5-5.4-8.3-.2-.9 0-1.9.5-2.7 2 .3 3.8 0 5.3-1 0 0 .3-.2.5-.3 1.1.3 2.3.2 3.4-.3.7-.3 1.5-.4 2.3-.3 1.1.2 2 .8 2.6 1.6.5.9.8 2 .6 3z"></path></g><!----></svg>