<svg data-v-423bf9ae="" xmlns="http://www.w3.org/2000/svg" viewBox="0 0 548 90" class="iconLeft"><!----><!----><!----><g data-v-423bf9ae="" id="c8524e56-f4d4-492c-b3ca-a88cb3cff350" fill="black" transform="matrix(4.395604518446158,0,0,4.395604518446158,105.99999567992666,1.813185490987209)"><path d="M0.91 13.78L2.55 13.78L2.55 10.70C2.55 9.69 2.38 7.53 2.28 6.55L2.34 6.55L3.07 9.07L3.93 11.31L4.86 11.31L5.71 9.07L6.45 6.55L6.51 6.55C6.41 7.53 6.24 9.69 6.24 10.70L6.24 13.78L7.91 13.78L7.91 4.54L5.84 4.54L4.80 7.83L4.45 9.11L4.41 9.11L4.05 7.83L2.98 4.54L0.91 4.54ZM13.02 13.94C14.85 13.94 16.56 12.59 16.56 10.21C16.56 7.83 14.85 6.45 13.02 6.45C11.19 6.45 9.48 7.83 9.48 10.21C9.48 12.59 11.19 13.94 13.02 13.94ZM13.02 12.28C12.07 12.28 11.59 11.47 11.59 10.21C11.59 8.95 12.07 8.12 13.02 8.12C13.97 8.12 14.45 8.95 14.45 10.21C14.45 11.47 13.97 12.28 13.02 12.28ZM20.27 13.78L22.64 13.78L25.19 6.64L23.21 6.64L22.12 10.05C21.90 10.77 21.71 11.51 21.50 12.25L21.45 12.25C21.24 11.51 21.04 10.77 20.82 10.05L19.73 6.64L17.65 6.64ZM29.79 5.80C30.60 5.80 31.19 5.26 31.19 4.42C31.19 3.58 30.60 3.00 29.79 3.00C28.98 3.00 28.39 3.58 28.39 4.42C28.39 5.26 28.98 5.80 29.79 5.80ZM26.47 13.78L33.29 13.78L33.29 12.11L30.91 12.11L30.91 6.64L26.47 6.64L26.47 8.25L28.85 8.25L28.85 12.11L26.47 12.11ZM38.64 13.94C39.56 13.94 40.60 13.62 41.38 13.12L40.71 11.87C40.10 12.21 39.55 12.38 38.92 12.38C37.90 12.38 37.04 11.90 36.90 10.81L41.58 10.81C41.61 10.63 41.66 10.25 41.66 9.88C41.66 7.94 40.54 6.45 38.40 6.45C36.55 6.45 34.79 7.87 34.79 10.21C34.79 12.57 36.48 13.94 38.64 13.94ZM36.88 9.44C37.06 8.48 37.70 8.04 38.44 8.04C39.38 8.04 39.80 8.60 39.80 9.44ZM51.72 13.78L53.77 13.78L53.77 9.91L56.27 9.91L56.27 13.78L58.32 13.78L58.32 4.54L56.27 4.54L56.27 8.11L53.77 8.11L53.77 4.54L51.72 4.54ZM63.84 13.94C64.76 13.94 65.80 13.62 66.58 13.12L65.91 11.87C65.30 12.21 64.75 12.38 64.12 12.38C63.10 12.38 62.24 11.90 62.10 10.81L66.78 10.81C66.81 10.63 66.86 10.25 66.86 9.88C66.86 7.94 65.74 6.45 63.60 6.45C61.75 6.45 59.99 7.87 59.99 10.21C59.99 12.57 61.68 13.94 63.84 13.94ZM62.08 9.44C62.26 8.48 62.90 8.04 63.64 8.04C64.58 8.04 65.00 8.60 65.00 9.44ZM73.15 13.94C74.02 13.94 74.51 13.79 75.24 13.55L74.77 12.04C74.34 12.22 74.00 12.28 73.68 12.28C73.11 12.28 72.56 11.98 72.56 11.10L72.56 3.65L68.49 3.65L68.49 5.28L70.50 5.28L70.50 11.00C70.50 12.81 71.40 13.94 73.15 13.94ZM77.03 16.65L79.09 16.65L79.09 14.34L79.02 13.16C79.52 13.68 80.14 13.94 80.75 13.94C82.31 13.94 83.76 12.53 83.76 10.09C83.76 7.88 82.71 6.45 80.98 6.45C80.23 6.45 79.46 6.85 78.90 7.36L78.86 7.36L78.71 6.64L77.03 6.64ZM80.28 12.26C79.93 12.26 79.48 12.14 79.09 11.77L79.09 8.83C79.52 8.36 79.93 8.13 80.37 8.13C81.24 8.13 81.65 8.82 81.65 10.12C81.65 11.61 81.05 12.26 80.28 12.26ZM89.04 13.94C89.96 13.94 91 13.62 91.78 13.12L91.11 11.87C90.50 12.21 89.95 12.38 89.32 12.38C88.30 12.38 87.44 11.90 87.30 10.81L91.98 10.81C92.01 10.63 92.06 10.25 92.06 9.88C92.06 7.94 90.94 6.45 88.80 6.45C86.95 6.45 85.19 7.87 85.19 10.21C85.19 12.57 86.88 13.94 89.04 13.94ZM87.28 9.44C87.46 8.48 88.10 8.04 88.84 8.04C89.78 8.04 90.20 8.60 90.20 9.44ZM94.44 13.78L96.50 13.78L96.50 10.02C97.09 8.74 97.99 8.26 98.84 8.26C99.36 8.26 99.64 8.34 100.07 8.47L100.49 6.75C100.09 6.57 99.76 6.45 99.15 6.45C98.04 6.45 97.02 7.03 96.33 8.20L96.29 8.20L96.12 6.64L94.44 6.64Z"></path></g><!----><g data-v-423bf9ae="" id="3f78c5d5-fad0-4588-839c-74cde98dd06b" transform="matrix(1.089588297211632,0,0,1.089588297211632,-3.331476703954941,-3.331476703954941)" stroke="none" fill="black"><path d="M45 86.3C22.2 86.3 3.7 67.8 3.7 45S22.2 3.7 45 3.7c22.8 0 41.3 18.5 41.3 41.3 0 9.6-3.3 18.9-9.4 26.3-1.8 2.1-4.9 2.4-7 .7-2.1-1.8-2.4-4.9-.7-7 4.6-5.6 7.1-12.6 7.1-19.9 0-17.2-14-31.3-31.3-31.3-17.2 0-31.3 14-31.3 31.3s14 31.3 31.3 31.3c2.8 0 5 2.2 5 5s-2.2 4.9-5 4.9z"></path><path d="M58 23.4c-2.2 0-4.4.8-6 2.5-3.3 3.3-3.3 8.7 0 12.1 1.7 1.7 3.8 2.5 6 2.5s4.4-.8 6-2.5c3.3-3.3 3.3-8.7 0-12.1-1.6-1.6-3.8-2.5-6-2.5zM32 49.5c-2.2 0-4.4.8-6 2.5-3.3 3.3-3.3 8.7 0 12.1 1.7 1.7 3.8 2.5 6 2.5s4.4-.8 6-2.5c3.3-3.3 3.3-8.7 0-12.1-1.7-1.7-3.8-2.5-6-2.5zM58 49.5c-2.2 0-4.4.8-6 2.5-3.3 3.3-3.3 8.7 0 12.1 1.7 1.7 3.8 2.5 6 2.5s4.4-.8 6-2.5c3.3-3.3 3.3-8.7 0-12.1-1.6-1.7-3.8-2.5-6-2.5zM32 23.4c-2.2 0-4.4.8-6 2.5-3.3 3.3-3.3 8.7 0 12.1 1.7 1.7 3.9 2.5 6 2.5 2.2 0 4.4-.8 6-2.5 3.3-3.3 3.3-8.7 0-12.1-1.7-1.6-3.8-2.5-6-2.5z"></path><g><path d="M45 41.2c-1 0-1.9.4-2.7 1.1-1.5 1.5-1.5 3.9 0 5.4.7.7 1.7 1.1 2.7 1.1 1 0 1.9-.4 2.7-1.1 1.5-1.5 1.5-3.9 0-5.4-.8-.7-1.7-1.1-2.7-1.1z"></path></g><path d="M81.3 86.3H44.6c-2.8 0-5-2.2-5-5s2.2-5 5-5h36.7c2.8 0 5 2.2 5 5s-2.3 5-5 5z"></path></g><!----></svg>