<svg data-v-423bf9ae="" xmlns="http://www.w3.org/2000/svg" viewBox="0 0 60 60" class="icon"><!----><!----><!----><!----><g data-v-423bf9ae="" id="d7b1c626-adfb-4497-b246-c05bbb504970" transform="matrix(0.726392198141088,0,0,0.726392198141088,-2.6876509293405277,-2.6876509293405277)" stroke="none" fill="white"><path d="M45 86.3C22.2 86.3 3.7 67.8 3.7 45S22.2 3.7 45 3.7c22.8 0 41.3 18.5 41.3 41.3 0 9.6-3.3 18.9-9.4 26.3-1.8 2.1-4.9 2.4-7 .7-2.1-1.8-2.4-4.9-.7-7 4.6-5.6 7.1-12.6 7.1-19.9 0-17.2-14-31.3-31.3-31.3-17.2 0-31.3 14-31.3 31.3s14 31.3 31.3 31.3c2.8 0 5 2.2 5 5s-2.2 4.9-5 4.9z"></path><path d="M58 23.4c-2.2 0-4.4.8-6 2.5-3.3 3.3-3.3 8.7 0 12.1 1.7 1.7 3.8 2.5 6 2.5s4.4-.8 6-2.5c3.3-3.3 3.3-8.7 0-12.1-1.6-1.6-3.8-2.5-6-2.5zM32 49.5c-2.2 0-4.4.8-6 2.5-3.3 3.3-3.3 8.7 0 12.1 1.7 1.7 3.8 2.5 6 2.5s4.4-.8 6-2.5c3.3-3.3 3.3-8.7 0-12.1-1.7-1.7-3.8-2.5-6-2.5zM58 49.5c-2.2 0-4.4.8-6 2.5-3.3 3.3-3.3 8.7 0 12.1 1.7 1.7 3.8 2.5 6 2.5s4.4-.8 6-2.5c3.3-3.3 3.3-8.7 0-12.1-1.6-1.7-3.8-2.5-6-2.5zM32 23.4c-2.2 0-4.4.8-6 2.5-3.3 3.3-3.3 8.7 0 12.1 1.7 1.7 3.9 2.5 6 2.5 2.2 0 4.4-.8 6-2.5 3.3-3.3 3.3-8.7 0-12.1-1.7-1.6-3.8-2.5-6-2.5z"></path><g><path d="M45 41.2c-1 0-1.9.4-2.7 1.1-1.5 1.5-1.5 3.9 0 5.4.7.7 1.7 1.1 2.7 1.1 1 0 1.9-.4 2.7-1.1 1.5-1.5 1.5-3.9 0-5.4-.8-.7-1.7-1.1-2.7-1.1z"></path></g><path d="M81.3 86.3H44.6c-2.8 0-5-2.2-5-5s2.2-5 5-5h36.7c2.8 0 5 2.2 5 5s-2.3 5-5 5z"></path></g><!----></svg>